<svg width="21" height="21" viewBox="0 0 21 21" fill="none" xmlns="http://www.w3.org/2000/svg">
<path fill-rule="evenodd" clip-rule="evenodd" d="M11.1566 0.588269C11.2823 0.640822 11.4497 0.728841 11.5287 0.783823C11.6076 0.838805 13.5871 2.80206 15.9276 5.14663C19.3618 8.58685 20.2026 9.44905 20.285 9.61455C20.6621 10.3729 20.5369 11.2049 19.9586 11.7835C19.5996 12.1428 19.1411 12.3291 18.6157 12.3291H18.3497V15.4623C18.3497 17.5834 18.3359 18.6625 18.3068 18.8031C18.1589 19.5177 17.5812 20.1632 16.8689 20.4094C16.6091 20.4993 16.591 20.5 14.7006 20.5C12.8363 20.5 12.7918 20.4982 12.686 20.4192C12.6265 20.3748 12.5415 20.2897 12.4971 20.2302C12.4179 20.1241 12.416 20.0715 12.3968 17.5059L12.3772 14.8897L12.2583 14.6969C12.1101 14.4566 11.8075 14.2645 11.5211 14.2289C11.4104 14.2151 10.8615 14.2097 10.3015 14.2168L9.2832 14.2297L9.07743 14.3438C8.8813 14.4526 8.75464 14.5821 8.63331 14.798C8.58811 14.8784 8.57472 15.3638 8.55866 17.509C8.53947 20.0715 8.53751 20.1241 8.45832 20.2302C8.41391 20.2897 8.32889 20.3748 8.2694 20.4192C8.16361 20.4982 8.11916 20.5 6.25486 20.5C4.36448 20.5 4.3463 20.4993 4.08649 20.4094C3.37421 20.1632 2.79649 19.5177 2.64865 18.8031C2.61955 18.6625 2.60568 17.5834 2.60568 15.4623V12.3291H2.33976C1.60327 12.3291 0.96133 11.9361 0.644726 11.2914C0.511803 11.0207 0.510393 11.0123 0.510393 10.4872C0.510393 9.59342 0.0600815 10.1241 5.08745 5.09349C10.0863 0.0915075 9.58547 0.521216 10.4374 0.503111C10.8825 0.493627 10.9494 0.501544 11.1566 0.588269ZM10.1866 1.70794C9.95848 1.81897 1.76964 10.021 1.68681 10.2214C1.60496 10.4194 1.61115 10.5873 1.70769 10.7869C1.85314 11.0875 1.97373 11.1307 2.73023 11.1534C3.44126 11.1747 3.4917 11.1901 3.68027 11.4428C3.76009 11.5497 3.76127 11.592 3.78061 15.1046L3.8002 18.6581L3.90876 18.8429C3.96849 18.9446 4.07544 19.0721 4.14645 19.1263C4.41911 19.3344 4.50034 19.3439 5.99833 19.3439H7.38373V17.1512C7.38373 15.7126 7.3985 14.8872 7.4267 14.7509C7.57881 14.0157 8.17266 13.3799 8.93072 13.1406C9.19003 13.0588 9.27376 13.0541 10.4777 13.0541C11.8795 13.0541 11.9495 13.0634 12.4535 13.3174C12.9473 13.5663 13.4118 14.1854 13.5287 14.7509C13.5569 14.8872 13.5717 15.7126 13.5717 17.1512V19.3439H14.9571C16.4551 19.3439 16.5363 19.3344 16.809 19.1263C16.88 19.0721 16.9869 18.9446 17.0467 18.8429L17.1552 18.6581L17.1748 15.1046C17.1942 11.592 17.1953 11.5497 17.2752 11.4428C17.4637 11.1901 17.5142 11.1747 18.2252 11.1534C18.9817 11.1307 19.1023 11.0875 19.2477 10.7869C19.3443 10.5873 19.3505 10.4194 19.2686 10.2214C19.1876 10.0254 10.9987 1.82112 10.7714 1.70826C10.5728 1.60962 10.3887 1.60954 10.1866 1.70794Z" fill="#FF6F17" stroke="#FF6F17"/>
</svg>
